<svg width="48" height="350" viewBox="0 0 48 350" fill="none" xmlns="http://www.w3.org/2000/svg">
<path d="M43.6225 166.68C43.6225 163.543 34.8338 160.983 24.0061 160.983C13.1643 160.983 4.38965 163.529 4.38965 166.68C4.38965 167.13 4.57242 167.58 4.92397 168.002C5.96455 169.268 6.44268 170.914 6.44268 172.546V183.643H41.5694V172.546C41.5694 170.9 42.0476 169.268 43.0882 168.002C43.4397 167.58 43.6225 167.13 43.6225 166.68Z" fill="#311D15"/>
<path d="M39.8255 158.325C39.8255 155.906 32.7382 153.936 23.9917 153.936C15.2452 153.936 8.15796 155.906 8.15796 158.325C8.15796 158.606 8.2564 158.874 8.42514 159.127C9.21261 160.308 9.74697 161.644 9.74697 163.079V164.95H38.2224V163.079C38.2224 161.659 38.7568 160.308 39.5443 159.127C39.7411 158.874 39.8255 158.606 39.8255 158.325Z" fill="#311D15"/>
<path d="M37.8853 151.39C37.8853 148.971 31.6699 147.002 24.0061 147.002C16.3423 147.002 10.127 148.971 10.127 151.39C10.127 151.742 10.2535 152.066 10.4926 152.389C11.4769 153.725 12.1097 155.287 12.1097 156.947V158.086H36.6056V156.173C36.6056 154.794 36.8869 153.388 37.604 152.22C37.7868 151.967 37.8853 151.672 37.8853 151.39Z" fill="#311D15"/>
<path d="M33.9057 151.517H14.1064V135.215C14.1064 134.005 15.0908 133.021 16.3001 133.021H31.712C32.9214 133.021 33.9057 134.005 33.9057 135.215V151.517Z" fill="#311D15"/>
<path d="M29.9261 67.4175C29.9261 68.5709 27.2684 69.5133 24.006 69.5133C20.7296 69.5133 18.0859 68.5709 18.0859 67.4175C18.0859 66.2641 20.7436 65.3217 24.006 65.3217C27.2824 65.3217 29.9261 66.2501 29.9261 67.4175Z" fill="#311D15"/>
<path d="M21.8826 2.10987C21.8826 0.94241 22.8247 0 23.9919 0C25.159 0 26.1012 0.94241 26.1012 2.10987C26.1012 3.27734 25.159 4.21975 23.9919 4.21975C22.8388 4.23381 21.8826 3.27734 21.8826 2.10987Z" fill="#311D15"/>
<path d="M25.595 5.27471L27.184 108.279C27.2122 110.037 25.8059 111.486 24.0482 111.514C22.2905 111.542 20.8421 110.135 20.814 108.377C20.814 108.349 20.814 108.307 20.814 108.279L22.403 5.27471C22.417 4.40263 23.1342 3.69934 24.0201 3.7134C24.8919 3.7134 25.581 4.4167 25.595 5.27471Z" fill="#311D15"/>
<path d="M30.2916 148.479H17.7202V104.622C17.7202 103.51 18.4515 102.512 19.5061 102.188C20.6451 101.837 22.0935 101.527 23.7809 101.499C25.6512 101.471 27.2402 101.794 28.4776 102.174C29.5463 102.512 30.2916 103.496 30.2916 104.622V148.479Z" fill="#311D15"/>
<path d="M47.2785 200.536C47.2785 204.165 44.7895 207.316 41.2599 208.174C36.1414 209.412 29.6869 210.383 22.2763 210.214C16.314 210.073 11.0689 209.229 6.70973 208.174C3.19424 207.33 0.733398 204.165 0.733398 200.551V189.031C0.733398 184.164 3.9817 179.916 8.6784 178.622C12.8407 177.469 17.9733 176.554 23.8653 176.54C29.8557 176.526 35.0868 177.454 39.3194 178.622C44.0161 179.916 47.2785 184.164 47.2785 189.045V200.536Z" fill="#311D15"/>
<path d="M6.92089 208.174C11.2801 209.229 16.5252 210.073 22.4875 210.214C29.9122 210.383 36.3526 209.412 41.4711 208.174C44.0445 207.555 46.0553 205.713 46.9694 203.35C44.4804 199.496 35.2417 196.626 24.2171 196.626C13.1925 196.626 3.96787 199.496 1.46484 203.35C2.36481 205.699 4.36161 207.555 6.92089 208.174Z" fill="#311D15"/>
<path d="M32.6824 350L31.5293 207.682C31.4449 205.094 29.3356 203.054 26.7482 203.054H21.2781C18.6907 203.054 16.5814 205.108 16.497 207.682L12.7144 350H32.6824Z" fill="url(#paint0_linear_1524_15)"/>
<defs>
<linearGradient id="paint0_linear_1524_15" x1="22.6885" y1="239.915" x2="22.6885" y2="396.873" gradientUnits="userSpaceOnUse">
<stop stop-color="#311D15"/>
<stop offset="0.8793" stop-color="#311D15" stop-opacity="0.1207"/>
<stop offset="1" stop-color="#311D15" stop-opacity="0"/>
</linearGradient>
</defs>
</svg>
