<svg width="36" height="36" viewBox="0 0 36 36" fill="none" xmlns="http://www.w3.org/2000/svg">
<path fill-rule="evenodd" clip-rule="evenodd" d="M10.5 9C10.5 8.60218 10.658 8.22064 10.9393 7.93934C11.2206 7.65804 11.6022 7.5 12 7.5H24C24.3978 7.5 24.7794 7.65804 25.0607 7.93934C25.342 8.22064 25.5 8.60218 25.5 9C25.5 9.39782 25.342 9.77936 25.0607 10.0607C24.7794 10.342 24.3978 10.5 24 10.5H19.5V27C19.5 27.3978 19.342 27.7794 19.0607 28.0607C18.7794 28.342 18.3978 28.5 18 28.5C17.6022 28.5 17.2206 28.342 16.9393 28.0607C16.658 27.7794 16.5 27.3978 16.5 27V10.5H12C11.6022 10.5 11.2206 10.342 10.9393 10.0607C10.658 9.77936 10.5 9.39782 10.5 9Z" fill="white"/>
</svg>
