<svg width="18" height="19" viewBox="0 0 18 19" fill="none" xmlns="http://www.w3.org/2000/svg">
<g id="Frame" class="icon">
<path id="Vector" d="M9.97 1.26954C9.69901 1.04918 9.35527 0.928223 9 0.928223C8.64473 0.928223 8.30099 1.04918 8.03 1.26954L0.53 7.37287C0.363925 7.50792 0.230492 7.67602 0.138968 7.86552C0.0474437 8.05501 2.30915e-05 8.26134 0 8.47018V17.4894C0 17.871 0.158035 18.237 0.43934 18.5068C0.720644 18.7766 1.10218 18.9282 1.5 18.9282H6.25C6.44891 18.9282 6.63968 18.8524 6.78033 18.7175C6.92098 18.5826 7 18.3996 7 18.2088V12.2139H11V18.2088C11 18.6059 11.336 18.9282 11.75 18.9282H16.5C16.8978 18.9282 17.2794 18.7766 17.5607 18.5068C17.842 18.237 18 17.871 18 17.4894V8.47018C18 8.26134 17.9526 8.05501 17.861 7.86552C17.7695 7.67602 17.6361 7.50792 17.47 7.37287L9.97 1.26954Z" fill="#111"/>
</g>
</svg>
